<svg id="Camada_1" data-name="Camada 1" xmlns="http://www.w3.org/2000/svg" viewBox="0 0 397.5 397.5"><defs><style>.cls-1,.cls-2{fill:#dddada;}.cls-1{stroke:#1d1d1b;stroke-miterlimit:10;stroke-width:3px;}.cls-3{fill:#282828;}</style></defs><path class="cls-1" d="M445.35,247A197.24,197.24,0,0,1,248.1,444.27C139.16,444.27,50.85,356,50.85,247a196.39,196.39,0,0,1,23.42-93.3h80.78v0H263.91c24.29,0,39.62,11.45,39.62,32.13s-12.25,33.28-42,33.28h-54v-.08H155.05V380.7h52.51V339.16h-.06V260.71h52.42c34.53,0,49.56,15,49.56,38.46,0,26.43-16.44,40-47.75,40H258.8V380.7h12.71c56,0,92.76-32.81,92.76-80.14,0-36.31-24.57-55.36-42.93-62.15,18.22-7.83,34.9-27.09,34.9-57.91,0-35.59-25.15-68.34-87.83-68.34H104.15q2.2-2.35,4.47-4.62A197.25,197.25,0,0,1,445.35,247Z" transform="translate(-49.35 -48.27)"/><rect class="cls-2" x="158.21" y="290.69" width="51.24" height="0.2"/><rect class="cls-2" x="158.21" y="332.43" width="51.24" height="5.06"/><path class="cls-3" d="M364.27,300.56c0,47.33-36.79,80.14-92.76,80.14H258.8V339.16h2.93c31.31,0,47.75-13.56,47.75-40,0-23.5-15-38.46-49.56-38.46H207.5v78.45h.06V380.7H155.05V219.07H207.5v.08h54c29.8,0,42-12.68,42-33.28s-15.33-32.13-39.62-32.13H155.05v0h43.53V112.16h69.83c62.68,0,87.83,32.75,87.83,68.34,0,30.82-16.68,50.08-34.9,57.91C339.7,245.2,364.27,264.25,364.27,300.56Z" transform="translate(-49.35 -48.27)"/><path class="cls-3" d="M155.05,112.16v41.56H74.27a198.15,198.15,0,0,1,29.88-41.56Z" transform="translate(-49.35 -48.27)"/><rect class="cls-3" x="105.7" y="63.89" width="43.53" height="41.56"/></svg>